<svg id="Calque_1" data-name="Calque 1" xmlns="http://www.w3.org/2000/svg" viewBox="0 0 1024 768"><defs><style>.cls-1{fill:#143b61;}</style></defs><path class="cls-1" d="M837.46,376a76,76,0,1,1,0-107.53,48.84,48.84,0,1,0,69.06-69.07c-67.73-67.72-177.93-67.73-245.66,0-.71.71-1.4,1.43-2.1,2.15a173.4,173.4,0,0,0-249.69.06A173.39,173.39,0,0,0,193.82,173.9a48.84,48.84,0,0,0-91.7,23.42V571.94a48.84,48.84,0,0,0,97.67,0V474a173.4,173.4,0,0,0,209.28-31.16,173.4,173.4,0,0,0,249.69.06c.7.72,1.39,1.44,2.1,2.15a173.9,173.9,0,0,0,245.66,0A48.83,48.83,0,0,0,837.46,376ZM284.2,398.23a76,76,0,1,1,76-76A76.12,76.12,0,0,1,284.2,398.23ZM600.68,354.6a6.06,6.06,0,0,0-5.3,9.18l1,1.71,16.22,27.05a6.07,6.07,0,0,1-8.32,8.33l-27.06-16.22-1.7-1a6.07,6.07,0,0,0-9.19,5.31l0,2,.53,31.52a6.07,6.07,0,0,1-11.38,3L540.23,398l-1-1.76a6.07,6.07,0,0,0-10.61,0l-1,1.76L512.36,425.5a6.07,6.07,0,0,1-11.37-3l.52-31.52,0-2a6.07,6.07,0,0,0-9.19-5.31l-1.7,1-27,16.22a6.07,6.07,0,0,1-8.33-8.33l16.22-27.05,1-1.71a6.06,6.06,0,0,0-5.3-9.18l-2,0-10.36.17-21.15.35a6.07,6.07,0,0,1-3.05-11.37l27.15-15.08.41-.23,1.76-1a6.07,6.07,0,0,0,0-10.61l-1.76-1-.41-.23L430.63,300.6a6.07,6.07,0,0,1,3.05-11.37l21.15.35,10.36.17,2,0a6.07,6.07,0,0,0,5.3-9.19l-1-1.71-16.22-27a6.07,6.07,0,0,1,8.33-8.32l27,16.22,1.7,1a6.07,6.07,0,0,0,9.19-5.3l0-2L501,221.93a6.07,6.07,0,0,1,11.37-3.05l15.31,27.56,1,1.75a6.06,6.06,0,0,0,10.61,0l1-1.75,15.3-27.56a6.07,6.07,0,0,1,11.38,3.05l-.53,31.51,0,2a6.07,6.07,0,0,0,9.19,5.3l1.7-1,27.06-16.22a6.06,6.06,0,0,1,8.32,8.32l-16.22,27-1,1.71a6.07,6.07,0,0,0,5.3,9.19l2,0,10.43-.17,21.08-.35a6.07,6.07,0,0,1,3,11.37l-27.06,15-.5.27-1.76,1a6.07,6.07,0,0,0,0,10.61l1.76,1,.5.28,27.06,15a6.07,6.07,0,0,1-3,11.37l-21.08-.35-10.43-.17Z"/><path class="cls-1" d="M872.15,535.47a37.61,37.61,0,1,0,37.61,37.61A37.65,37.65,0,0,0,872.15,535.47Zm0,58.48A20.87,20.87,0,1,1,893,573.08,20.89,20.89,0,0,1,872.15,594Z"/><path class="cls-1" d="M650,535.47H632a8.38,8.38,0,0,0-8.38,8.38v58.47a8.38,8.38,0,0,0,8.38,8.37h18a37.61,37.61,0,1,0,0-75.22ZM650,594h-9.62V552.22H650A20.87,20.87,0,0,1,650,594Z"/><path class="cls-1" d="M550.86,535.47a8.38,8.38,0,0,0-8.38,8.38V580.4a13.55,13.55,0,1,1-27.09,0V543.85a8.37,8.37,0,1,0-16.74,0V580.4a30.29,30.29,0,0,0,60.58,0V543.85A8.38,8.38,0,0,0,550.86,535.47Z"/><path class="cls-1" d="M760.54,535.47a8.38,8.38,0,0,0-8.37,8.38v58.47a8.37,8.37,0,1,0,16.74,0V543.85A8.38,8.38,0,0,0,760.54,535.47Z"/><path class="cls-1" d="M428.61,535.47H384.45a8.38,8.38,0,0,0,0,16.75h13.71v50.1a8.37,8.37,0,0,0,16.74,0v-50.1h13.71a8.38,8.38,0,0,0,0-16.75Z"/><path class="cls-1" d="M294,565.49c-10.25-3.63-13.66-5.49-13.66-9.37s6.38-3.9,6.65-3.9A25.88,25.88,0,0,1,302.36,557a8.37,8.37,0,1,0,9.29-13.93A42.65,42.65,0,0,0,287,535.47c-13.56,0-23.39,8.69-23.39,20.65,0,16.37,14.93,21.66,24.82,25.15s13.12,5.22,13.12,8.61c0,2.52-4.62,4.07-7.93,4.07-5.88,0-10.43-2.07-14.75-6.72a8.37,8.37,0,0,0-12.26,11.41c7.54,8.11,16.38,12.05,27,12.05,16,0,24.67-10.72,24.67-20.81C318.29,574.08,303.68,568.91,294,565.49Z"/></svg>